<svg width="12" height="12" viewBox="0 0 12 12" fill="none" xmlns="http://www.w3.org/2000/svg">
<g clip-path="url(#clip0_1357_17802)">
<path d="M11.25 1.12236L8.24738 1.12238V0.375C8.24738 0.167812 8.07956 0 7.87238 0C7.66519 0 7.49738 0.167812 7.49738 0.375V1.12219H4.49738V0.375C4.49738 0.167812 4.32956 0 4.12238 0C3.91519 0 3.74738 0.167812 3.74738 0.375V1.12219H0.75C0.335812 1.12219 0 1.458 0 1.87219V11.2472C0 11.6614 0.335812 11.9972 0.75 11.9972H11.25C11.6642 11.9972 12 11.6614 12 11.2472V1.87219C12 1.45818 11.6642 1.12236 11.25 1.12236ZM11.25 11.2472H0.75V1.87219H3.74738V2.25C3.74738 2.45718 3.91519 2.625 4.12238 2.625C4.32956 2.625 4.49738 2.45718 4.49738 2.25V1.87238H7.49738V2.25019C7.49738 2.45738 7.66519 2.62519 7.87238 2.62519C8.07956 2.62519 8.24738 2.45738 8.24738 2.25019V1.87238H11.25V11.2472ZM8.625 5.99736H9.375C9.582 5.99736 9.75 5.82936 9.75 5.62236V4.87236C9.75 4.66536 9.582 4.49736 9.375 4.49736H8.625C8.418 4.49736 8.25 4.66536 8.25 4.87236V5.62236C8.25 5.82936 8.418 5.99736 8.625 5.99736ZM8.625 8.99718H9.375C9.582 8.99718 9.75 8.82936 9.75 8.62218V7.87218C9.75 7.66518 9.582 7.49718 9.375 7.49718H8.625C8.418 7.49718 8.25 7.66518 8.25 7.87218V8.62218C8.25 8.82955 8.418 8.99718 8.625 8.99718ZM6.375 7.49718H5.625C5.418 7.49718 5.25 7.66518 5.25 7.87218V8.62218C5.25 8.82936 5.418 8.99718 5.625 8.99718H6.375C6.582 8.99718 6.75 8.82936 6.75 8.62218V7.87218C6.75 7.66536 6.582 7.49718 6.375 7.49718ZM6.375 4.49736H5.625C5.418 4.49736 5.25 4.66536 5.25 4.87236V5.62236C5.25 5.82936 5.418 5.99736 5.625 5.99736H6.375C6.582 5.99736 6.75 5.82936 6.75 5.62236V4.87236C6.75 4.66518 6.582 4.49736 6.375 4.49736ZM3.375 4.49736H2.625C2.418 4.49736 2.25 4.66536 2.25 4.87236V5.62236C2.25 5.82936 2.418 5.99736 2.625 5.99736H3.375C3.582 5.99736 3.75 5.82936 3.75 5.62236V4.87236C3.75 4.66518 3.582 4.49736 3.375 4.49736ZM3.375 7.49718H2.625C2.418 7.49718 2.25 7.66518 2.25 7.87218V8.62218C2.25 8.82936 2.418 8.99718 2.625 8.99718H3.375C3.582 8.99718 3.75 8.82936 3.75 8.62218V7.87218C3.75 7.66536 3.582 7.49718 3.375 7.49718Z" fill="#828282"/>
</g>
<defs>
<clipPath id="clip0_1357_17802">
<rect width="12" height="12" fill="white"/>
</clipPath>
</defs>
</svg>
