<svg width="12" height="12" viewBox="0 0 12 12" fill="none" xmlns="http://www.w3.org/2000/svg">
<path d="M4.2 8.5L6 6.7L7.8 8.5L8.5 7.8L6.7 6L8.5 4.2L7.8 3.5L6 5.3L4.2 3.5L3.5 4.2L5.3 6L3.5 7.8L4.2 8.5ZM6 11C5.30833 11 4.65833 10.8687 4.05 10.606C3.44167 10.3433 2.9125 9.98717 2.4625 9.5375C2.0125 9.0875 1.65633 8.55833 1.394 7.95C1.13167 7.34167 1.00033 6.69167 1 6C1 5.30833 1.13133 4.65833 1.394 4.05C1.65667 3.44167 2.01283 2.9125 2.4625 2.4625C2.9125 2.0125 3.44167 1.65633 4.05 1.394C4.65833 1.13167 5.30833 1.00033 6 1C6.69167 1 7.34167 1.13133 7.95 1.394C8.55833 1.65667 9.0875 2.01283 9.5375 2.4625C9.9875 2.9125 10.3438 3.44167 10.6065 4.05C10.8692 4.65833 11.0003 5.30833 11 6C11 6.69167 10.8687 7.34167 10.606 7.95C10.3433 8.55833 9.98717 9.0875 9.5375 9.5375C9.0875 9.9875 8.55833 10.3438 7.95 10.6065C7.34167 10.8692 6.69167 11.0003 6 11Z" fill="#304A59"/>
</svg>
