<svg width="135" height="27" viewBox="0 0 135 27" fill="none" xmlns="http://www.w3.org/2000/svg">
<rect width="135" height="27" rx="13.5" fill="#FDCB44"/>
<path d="M75.6 22L69.3 15.35C68.8 15.7722 68.225 16.1065 67.575 16.3528C66.925 16.5991 66.2333 16.7222 65.5 16.7222C63.6833 16.7222 62.146 16.0579 60.888 14.7293C59.63 13.4007 59.0007 11.778 59 9.86111C59 7.94352 59.6293 6.32078 60.888 4.99289C62.1467 3.665 63.684 3.0007 65.5 3C67.3167 3 68.854 3.6643 70.112 4.99289C71.37 6.32148 71.9993 7.94422 72 9.86111C72 10.6352 71.8833 11.3653 71.65 12.0514C71.4167 12.7375 71.1 13.3444 70.7 13.8722L77 20.5222L75.6 22ZM65.5 14.6111C66.75 14.6111 67.8127 14.1491 68.688 13.2252C69.5633 12.3012 70.0007 11.1799 70 9.86111C70 8.54167 69.5623 7.41996 68.687 6.496C67.8117 5.57204 66.7493 5.11041 65.5 5.11111C64.25 5.11111 63.1873 5.57309 62.312 6.49706C61.4367 7.42102 60.9993 8.54237 61 9.86111C61 11.1806 61.4377 12.3023 62.313 13.2262C63.1883 14.1502 64.2507 14.6118 65.5 14.6111Z" fill="#354D5A"/>
</svg>
