<svg width="40" height="27" viewBox="0 0 40 27" fill="none" xmlns="http://www.w3.org/2000/svg">
<rect width="40" height="27" rx="5" fill="#FFAC04"/>
<path d="M19.9993 12C19.4689 12 18.9602 12.2107 18.5851 12.5858C18.2101 12.9609 17.9993 13.4696 17.9993 14C17.9993 14.5304 18.2101 15.0391 18.5851 15.4142C18.9602 15.7893 19.4689 16 19.9993 16C20.5298 16 21.0385 15.7893 21.4136 15.4142C21.7886 15.0391 21.9993 14.5304 21.9993 14C21.9993 13.4696 21.7886 12.9609 21.4136 12.5858C21.0385 12.2107 20.5298 12 19.9993 12ZM19.9993 17.3333C19.1153 17.3333 18.2674 16.9821 17.6423 16.357C17.0172 15.7319 16.666 14.8841 16.666 14C16.666 13.1159 17.0172 12.2681 17.6423 11.643C18.2674 11.0179 19.1153 10.6667 19.9993 10.6667C20.8834 10.6667 21.7313 11.0179 22.3564 11.643C22.9815 12.2681 23.3327 13.1159 23.3327 14C23.3327 14.8841 22.9815 15.7319 22.3564 16.357C21.7313 16.9821 20.8834 17.3333 19.9993 17.3333ZM19.9993 9C16.666 9 13.8193 11.0733 12.666 14C13.8193 16.9267 16.666 19 19.9993 19C23.3327 19 26.1793 16.9267 27.3327 14C26.1793 11.0733 23.3327 9 19.9993 9Z" fill="black"/>
</svg>
