<svg width="33" height="28" viewBox="0 0 33 28" fill="none" xmlns="http://www.w3.org/2000/svg">
<rect x="-0.7" y="0.7" width="31.6" height="26.6" rx="4.3" transform="matrix(-1 0 0 1 31.6 0)" fill="#F9F9F9"/>
<rect x="-0.7" y="0.7" width="31.6" height="26.6" rx="4.3" transform="matrix(-1 0 0 1 31.6 0)" stroke="#D9D9D9" stroke-width="1.4"/>
<path d="M11.7929 14.7071C11.4024 14.3166 11.4024 13.6834 11.7929 13.2929L18.1569 6.92893C18.5474 6.53841 19.1805 6.53841 19.5711 6.92893C19.9616 7.31946 19.9616 7.95262 19.5711 8.34315L13.9142 14L19.5711 19.6569C19.9616 20.0474 19.9616 20.6805 19.5711 21.0711C19.1805 21.4616 18.5474 21.4616 18.1569 21.0711L11.7929 14.7071ZM14 15L12.5 15L12.5 13L14 13L14 15Z" fill="#B4B4B4"/>
</svg>
