<svg width="33" height="33" viewBox="0 0 33 33" fill="none" xmlns="http://www.w3.org/2000/svg">
<rect width="33" height="33" rx="16.5" fill="#FDCB44"/>
<path d="M25.2303 26.7583L18.3627 19.8908C17.8176 20.3268 17.1908 20.672 16.4823 20.9264C15.7737 21.1807 15.0198 21.3079 14.2204 21.3079C12.24 21.3079 10.5642 20.6219 9.19285 19.2498C7.82152 17.8777 7.13549 16.2019 7.13476 14.2223C7.13476 12.242 7.8208 10.5661 9.19286 9.19481C10.5649 7.82348 12.2407 7.13745 14.2204 7.13672C16.2007 7.13672 17.8765 7.82275 19.2478 9.19481C20.6192 10.5669 21.3052 12.2427 21.3059 14.2223C21.3059 15.0217 21.1788 15.7757 20.9244 16.4842C20.6701 17.1928 20.3249 17.8196 19.8888 18.3646L26.7564 25.2322L25.2303 26.7583ZM14.2204 19.1277C15.583 19.1277 16.7414 18.6506 17.6956 17.6964C18.6498 16.7422 19.1265 15.5842 19.1258 14.2223C19.1258 12.8597 18.6487 11.7013 17.6945 10.7471C16.7403 9.79291 15.5822 9.31617 14.2204 9.3169C12.8577 9.3169 11.6993 9.794 10.7451 10.7482C9.79095 11.7024 9.31422 12.8604 9.31495 14.2223C9.31494 15.5849 9.79204 16.7433 10.7462 17.6975C11.7004 18.6517 12.8585 19.1284 14.2204 19.1277Z" fill="#354D5A"/>
</svg>
