<svg width="33" height="28" viewBox="0 0 33 28" fill="none" xmlns="http://www.w3.org/2000/svg">
<rect x="0.7" y="0.7" width="31.6" height="26.6" rx="4.3" fill="#F9F9F9"/>
<rect x="0.7" y="0.7" width="31.6" height="26.6" rx="4.3" stroke="#D9D9D9" stroke-width="1.4"/>
<path d="M21.2071 14.7071C21.5976 14.3166 21.5976 13.6834 21.2071 13.2929L14.8431 6.92893C14.4526 6.53841 13.8195 6.53841 13.4289 6.92893C13.0384 7.31946 13.0384 7.95262 13.4289 8.34315L19.0858 14L13.4289 19.6569C13.0384 20.0474 13.0384 20.6805 13.4289 21.0711C13.8195 21.4616 14.4526 21.4616 14.8431 21.0711L21.2071 14.7071ZM19 15L20.5 15L20.5 13L19 13L19 15Z" fill="#B4B4B4"/>
</svg>
