<svg width="33" height="28" viewBox="0 0 33 28" fill="none" xmlns="http://www.w3.org/2000/svg">
<rect x="-0.7" y="0.7" width="31.6" height="26.6" rx="4.3" transform="matrix(-1 0 0 1 31.6 0)" fill="#F9F9F9"/>
<rect x="-0.7" y="0.7" width="31.6" height="26.6" rx="4.3" transform="matrix(-1 0 0 1 31.6 0)" stroke="#D9D9D9" stroke-width="1.4"/>
<path d="M9.29289 14.7071C8.90237 14.3166 8.90237 13.6834 9.29289 13.2929L15.6569 6.92893C16.0474 6.53841 16.6805 6.53841 17.0711 6.92893C17.4616 7.31946 17.4616 7.95262 17.0711 8.34315L11.4142 14L17.0711 19.6569C17.4616 20.0474 17.4616 20.6805 17.0711 21.0711C16.6805 21.4616 16.0474 21.4616 15.6569 21.0711L9.29289 14.7071ZM11.5 15L10 15L10 13L11.5 13L11.5 15Z" fill="#B4B4B4"/>
<path d="M15.7929 14.7071C15.4024 14.3166 15.4024 13.6834 15.7929 13.2929L22.1569 6.92893C22.5474 6.53841 23.1805 6.53841 23.5711 6.92893C23.9616 7.31946 23.9616 7.95262 23.5711 8.34315L17.9142 14L23.5711 19.6569C23.9616 20.0474 23.9616 20.6805 23.5711 21.0711C23.1805 21.4616 22.5474 21.4616 22.1569 21.0711L15.7929 14.7071ZM18 15L16.5 15L16.5 13L18 13L18 15Z" fill="#B4B4B4"/>
</svg>
