<svg width="36" height="36" viewBox="0 0 36 36" fill="none" xmlns="http://www.w3.org/2000/svg">
<g clip-path="url(#clip0_2757_741)">
<path d="M17.9 17.3016C20.6 17.3016 22.7 15.1016 22.7 12.4016C22.7 9.70156 20.5 7.60156 17.8 7.60156C15.1 7.60156 13 9.80156 13 12.4016C13 15.1016 15.2 17.3016 17.9 17.3016ZM17.8 9.60156C17.9 9.60156 17.9 9.60156 17.8 9.60156C19.4 9.60156 20.7 10.9016 20.7 12.5016C20.7 14.1016 19.4 15.3016 17.8 15.3016C16.2 15.3016 15 14.0016 15 12.5016C15 10.9016 16.3 9.60156 17.8 9.60156Z" fill="#81653D"/>
<path d="M32.7 16.6989C30.8 14.9989 28.3 14.0989 25.7 14.1989H24.9C24.7 14.9989 24.4 15.6989 24 16.2989C24.6 16.1989 25.1 16.1989 25.7 16.1989C27.6 16.0989 29.5 16.6989 31 17.7989V24.9989H33V16.9989L32.7 16.6989Z" fill="#81653D"/>
<path d="M23.4 7.80078C23.9 6.60078 25.3 6.00078 26.6 6.50078C27.8 7.00078 28.4 8.40078 27.9 9.70078C27.5 10.6008 26.6 11.2008 25.7 11.2008C25.5 11.2008 25.2 11.2008 25 11.1008C25.1 11.6008 25.1 12.1008 25.1 12.5008V13.1008C25.3 13.1008 25.5 13.2008 25.7 13.2008C28.2 13.2008 30.2 11.2008 30.2 8.80078C30.2 6.30078 28.2 4.30078 25.8 4.30078C24.2 4.30078 22.8 5.10078 22 6.50078C22.5 6.80078 23 7.20078 23.4 7.80078Z" fill="#81653D"/>
<path d="M12 16.4005C11.6 15.8005 11.3 15.1005 11.1 14.3005H10.3C7.7 14.2005 5.2 15.1005 3.3 16.7005L3 17.0005V25.0005H5V17.8005C6.6 16.7005 8.4 16.1005 10.3 16.2005C10.9 16.2005 11.5 16.3005 12 16.4005Z" fill="#81653D"/>
<path d="M10.2998 13.0982C10.4998 13.0982 10.6998 13.0982 10.8998 12.9982V12.3982C10.8998 11.8982 10.8998 11.3982 10.9998 10.9982C10.7998 11.0982 10.4998 11.0982 10.2998 11.0982C8.99977 11.0982 7.89977 9.99821 7.89977 8.69821C7.89977 7.39821 8.99977 6.29821 10.2998 6.29821C11.2998 6.29821 12.1998 6.89821 12.5998 7.79821C12.9998 7.29821 13.5998 6.79821 14.0998 6.39821C12.7998 4.29821 10.0998 3.59821 7.99977 4.89821C5.89977 6.19821 5.19977 8.89821 6.49977 10.9982C7.29977 12.2982 8.69977 13.0982 10.2998 13.0982Z" fill="#81653D"/>
<path d="M26.1 22.7015L25.9 22.4015C23.9 20.2015 21.1 18.9015 18.1 19.0015C15.1 18.9015 12.2 20.2015 10.2 22.4015L10 22.7015V30.3015C10 31.2015 10.7 32.0015 11.7 32.0015H24.5C25.4 32.0015 26.2 31.2015 26.2 30.3015V22.7015H26.1ZM24.1 30.0015H12V23.4015C13.6 21.8015 15.8 21.0015 18.1 21.0015C20.3 20.9015 22.5 21.8015 24.1 23.4015V30.0015Z" fill="#81653D"/>
</g>
<defs>
<clipPath id="clip0_2757_741">
<rect width="36" height="36" fill="white"/>
</clipPath>
</defs>
</svg>
